<svg width="96" height="95" viewBox="0 0 96 95" fill="none" xmlns="http://www.w3.org/2000/svg">
<circle cx="53.2125" cy="42.3654" r="25.8654" stroke="white" stroke-width="3"/>
<path fill-rule="evenodd" clip-rule="evenodd" d="M36.682 66.6281L24.8239 78.4215C22.5687 80.6644 18.9226 80.6554 16.6785 78.4014C14.4327 76.1457 14.4417 72.4963 16.6985 70.2517L28.6203 58.3942C30.7393 61.6409 33.4835 64.4425 36.682 66.6281ZM38.1278 65.1902C34.8946 63.0468 32.1433 60.2348 30.0709 56.9514L31.63 55.4007C33.9427 53.1006 37.7018 53.1771 39.919 55.5694C42.0281 57.8454 41.9561 61.3828 39.7559 63.571L38.1278 65.1902Z" fill="white"/>
<path fill-rule="evenodd" clip-rule="evenodd" d="M72.0952 62.1723C67.1843 66.8554 60.5342 69.7308 53.2126 69.7308C38.0991 69.7308 25.8472 57.4789 25.8472 42.3654C25.8472 31.9637 31.6506 22.9174 40.1962 18.2879L47.4514 19.5266L42.9248 54.0934C70.9075 39.0733 73.788 52.4473 73.788 52.4473L72.142 61.9121L72.0952 62.1723Z" fill="white"/>
<path d="M49.7147 20.1439L71.222 45.3627C62.4609 43.2726 56.9316 44.2477 46.0184 49.6418L49.7147 20.1439Z" fill="white" fill-opacity="0.6"/>
</svg>
