<svg width="96" height="95" viewBox="0 0 96 95" fill="none" xmlns="http://www.w3.org/2000/svg">
<circle cx="54.7877" cy="40.7902" r="31.2902" stroke="#FE646F" stroke-width="3"/>
<path fill-rule="evenodd" clip-rule="evenodd" d="M35.2665 69.578L20.7713 83.994C18.0691 86.6815 13.7002 86.6707 11.0112 83.9699C8.32028 81.2671 8.331 76.8943 11.0352 74.2047L25.6075 59.711C28.138 63.6082 31.4274 66.967 35.2665 69.578ZM36.7126 68.1398C32.8385 65.5715 29.5418 62.202 27.0586 58.2678L28.9267 56.4097C31.6978 53.6535 36.2022 53.7452 38.8588 56.6118C41.3861 59.3389 41.2998 63.5777 38.6635 66.1996L36.7126 68.1398Z" fill="#FE646F"/>
<path fill-rule="evenodd" clip-rule="evenodd" d="M77.4135 64.5236C71.5291 70.1351 63.5608 73.5804 54.7877 73.5804C36.6782 73.5804 21.9975 58.8998 21.9975 40.7902C21.9975 28.3265 28.9514 17.4869 39.1911 11.9396L47.8845 13.4239L42.4606 54.8431C75.9904 36.8455 79.442 52.8708 79.442 52.8708L77.4697 64.2117L77.4135 64.5236Z" fill="#FE646F"/>
<path d="M50.5965 14.1635L76.3673 44.3817C65.8694 41.8773 59.244 43.0456 46.1674 49.5091L50.5965 14.1635Z" fill="#FE646F" fill-opacity="0.24"/>
</svg>
