<svg width="32" height="49" viewBox="0 0 32 49" fill="none" xmlns="http://www.w3.org/2000/svg">
<path d="M26.316 7.54399C26.028 8.07199 25.584 8.33599 24.984 8.33599C24.624 8.33599 24.216 8.20399 23.76 7.93999C23.304 7.67599 22.74 7.38799 22.068 7.07599C21.42 6.73999 20.64 6.43999 19.728 6.17599C18.816 5.88799 17.736 5.74399 16.488 5.74399C15.408 5.74399 14.436 5.88799 13.572 6.17599C12.708 6.43999 11.964 6.81199 11.34 7.29199C10.74 7.77199 10.272 8.33599 9.93599 8.98399C9.62399 9.60799 9.46799 10.292 9.46799 11.036C9.46799 11.972 9.73199 12.752 10.26 13.376C10.812 14 11.532 14.54 12.42 14.996C13.308 15.452 14.316 15.86 15.444 16.22C16.572 16.556 17.724 16.928 18.9 17.336C20.1 17.72 21.264 18.152 22.392 18.632C23.52 19.112 24.528 19.712 25.416 20.432C26.304 21.152 27.012 22.04 27.54 23.096C28.092 24.128 28.368 25.376 28.368 26.84C28.368 28.52 28.068 30.08 27.468 31.52C26.868 32.936 25.98 34.172 24.804 35.228C23.628 36.26 22.188 37.076 20.484 37.676C18.78 38.276 16.812 38.576 14.58 38.576C12.036 38.576 9.73199 38.168 7.66799 37.352C5.60399 36.512 3.85199 35.444 2.41199 34.148L3.92399 31.7C4.11599 31.388 4.34399 31.148 4.60799 30.98C4.87199 30.812 5.20799 30.728 5.61599 30.728C6.04799 30.728 6.50399 30.896 6.98399 31.232C7.46399 31.568 8.03999 31.94 8.71199 32.348C9.40799 32.756 10.248 33.128 11.232 33.464C12.216 33.8 13.44 33.968 14.904 33.968C16.152 33.968 17.244 33.812 18.18 33.5C19.116 33.164 19.896 32.72 20.52 32.168C21.144 31.616 21.6 30.98 21.888 30.26C22.2 29.54 22.356 28.772 22.356 27.956C22.356 26.948 22.08 26.12 21.528 25.472C21 24.8 20.292 24.236 19.404 23.78C18.516 23.3 17.496 22.892 16.344 22.556C15.216 22.196 14.052 21.824 12.852 21.44C11.676 21.056 10.512 20.624 9.35999 20.144C8.23199 19.64 7.22399 19.016 6.33599 18.272C5.44799 17.528 4.72799 16.616 4.17599 15.536C3.64799 14.432 3.38399 13.1 3.38399 11.54C3.38399 10.148 3.67199 8.81599 4.24799 7.54399C4.82399 6.24799 5.66399 5.11999 6.76799 4.15999C7.87199 3.17599 9.22799 2.39599 10.836 1.82C12.444 1.24399 14.28 0.955994 16.344 0.955994C18.744 0.955994 20.892 1.33999 22.788 2.10799C24.708 2.85199 26.364 3.88399 27.756 5.20399L26.316 7.54399Z" fill="#EAF6FF"/>
<path d="M1 48C18.1875 39.1531 31 44.7406 31 44.7406C31 44.7406 17.875 41.2484 1 48Z" fill="#FE646F" stroke="#FE646F" stroke-linecap="round" stroke-linejoin="round"/>
</svg>
