<svg width="32" height="32" viewBox="0 0 32 32" fill="none" xmlns="http://www.w3.org/2000/svg">
<circle cx="16" cy="16" r="16" fill="#0B2555"/>
<rect x="10" y="22" width="11" height="4" rx="0.8" fill="white"/>
<path fill-rule="evenodd" clip-rule="evenodd" d="M17.762 6.00089C17.7478 6.0003 17.7336 6 17.7192 6H16.0095C13.7873 6 12.0667 6.60955 10.8476 7.82865C9.61587 9.04775 9 10.765 9 12.9803C9 15.2088 9.61587 16.9391 10.8476 18.1713C12.0667 19.3904 13.7873 20 16.0095 20L17.8 20L19.581 20C19.5815 20 19.5819 20 19.5824 20H20.2C20.6418 20 21 19.6418 21 19.2V16.8C21 16.3582 20.6418 16 20.2 16H19.5714H17.8H16C14.3431 16 13 14.6569 13 13C13 11.3431 14.3431 10 16 10L17.8 10H18H20.2C20.6418 10 21 9.64183 21 9.2V6.8C21 6.35817 20.6418 6 20.2 6H17.8C17.7873 6 17.7746 6.0003 17.762 6.00089Z" fill="white"/>
</svg>
