<svg width="296" height="89" viewBox="0 0 296 89" fill="none" xmlns="http://www.w3.org/2000/svg">
<path d="M26.316 40.544C26.028 41.072 25.584 41.336 24.984 41.336C24.624 41.336 24.216 41.204 23.76 40.94C23.304 40.676 22.74 40.388 22.068 40.076C21.42 39.74 20.64 39.44 19.728 39.176C18.816 38.888 17.736 38.744 16.488 38.744C15.408 38.744 14.436 38.888 13.572 39.176C12.708 39.44 11.964 39.812 11.34 40.292C10.74 40.772 10.272 41.336 9.936 41.984C9.624 42.608 9.468 43.292 9.468 44.036C9.468 44.972 9.732 45.752 10.26 46.376C10.812 47 11.532 47.54 12.42 47.996C13.308 48.452 14.316 48.86 15.444 49.22C16.572 49.556 17.724 49.928 18.9 50.336C20.1 50.72 21.264 51.152 22.392 51.632C23.52 52.112 24.528 52.712 25.416 53.432C26.304 54.152 27.012 55.04 27.54 56.096C28.092 57.128 28.368 58.376 28.368 59.84C28.368 61.52 28.068 63.08 27.468 64.52C26.868 65.936 25.98 67.172 24.804 68.228C23.628 69.26 22.188 70.076 20.484 70.676C18.78 71.276 16.812 71.576 14.58 71.576C12.036 71.576 9.732 71.168 7.668 70.352C5.604 69.512 3.852 68.444 2.412 67.148L3.924 64.7C4.116 64.388 4.344 64.148 4.608 63.98C4.872 63.812 5.208 63.728 5.616 63.728C6.048 63.728 6.504 63.896 6.984 64.232C7.464 64.568 8.04 64.94 8.712 65.348C9.408 65.756 10.248 66.128 11.232 66.464C12.216 66.8 13.44 66.968 14.904 66.968C16.152 66.968 17.244 66.812 18.18 66.5C19.116 66.164 19.896 65.72 20.52 65.168C21.144 64.616 21.6 63.98 21.888 63.26C22.2 62.54 22.356 61.772 22.356 60.956C22.356 59.948 22.08 59.12 21.528 58.472C21 57.8 20.292 57.236 19.404 56.78C18.516 56.3 17.496 55.892 16.344 55.556C15.216 55.196 14.052 54.824 12.852 54.44C11.676 54.056 10.512 53.624 9.36 53.144C8.232 52.64 7.224 52.016 6.336 51.272C5.448 50.528 4.728 49.616 4.176 48.536C3.648 47.432 3.384 46.1 3.384 44.54C3.384 43.148 3.672 41.816 4.248 40.544C4.824 39.248 5.664 38.12 6.768 37.16C7.872 36.176 9.228 35.396 10.836 34.82C12.444 34.244 14.28 33.956 16.344 33.956C18.744 33.956 20.892 34.34 22.788 35.108C24.708 35.852 26.364 36.884 27.756 38.204L26.316 40.544ZM42.9924 34.532V71H36.5844V34.532H42.9924ZM44.3604 23.084C44.3604 23.708 44.2284 24.296 43.9644 24.848C43.7244 25.376 43.3884 25.856 42.9564 26.288C42.5484 26.696 42.0564 27.02 41.4804 27.26C40.9284 27.5 40.3404 27.62 39.7164 27.62C39.0924 27.62 38.5044 27.5 37.9524 27.26C37.4244 27.02 36.9564 26.696 36.5484 26.288C36.1404 25.856 35.8164 25.376 35.5764 24.848C35.3364 24.296 35.2164 23.708 35.2164 23.084C35.2164 22.46 35.3364 21.872 35.5764 21.32C35.8164 20.744 36.1404 20.252 36.5484 19.844C36.9564 19.412 37.4244 19.076 37.9524 18.836C38.5044 18.596 39.0924 18.476 39.7164 18.476C40.3404 18.476 40.9284 18.596 41.4804 18.836C42.0564 19.076 42.5484 19.412 42.9564 19.844C43.3884 20.252 43.7244 20.744 43.9644 21.32C44.2284 21.872 44.3604 22.46 44.3604 23.084ZM53.5213 71V34.532H57.3733C58.2853 34.532 58.8493 34.976 59.0653 35.864L59.5333 39.608C60.8773 37.952 62.3893 36.596 64.0693 35.54C65.7493 34.484 67.6933 33.956 69.9013 33.956C72.3493 33.956 74.3293 34.64 75.8413 36.008C77.3773 37.376 78.4813 39.224 79.1533 41.552C79.6813 40.232 80.3533 39.092 81.1693 38.132C82.0093 37.172 82.9453 36.38 83.9773 35.756C85.0093 35.132 86.1013 34.676 87.2533 34.388C88.4293 34.1 89.6173 33.956 90.8173 33.956C92.7373 33.956 94.4413 34.268 95.9293 34.892C97.4413 35.492 98.7133 36.38 99.7453 37.556C100.801 38.732 101.605 40.184 102.157 41.912C102.709 43.616 102.985 45.572 102.985 47.78V71H96.5413V47.78C96.5413 44.924 95.9173 42.764 94.6693 41.3C93.4213 39.812 91.6213 39.068 89.2693 39.068C88.2133 39.068 87.2053 39.26 86.2453 39.644C85.3093 40.004 84.4813 40.544 83.7613 41.264C83.0413 41.984 82.4653 42.896 82.0333 44C81.6253 45.08 81.4213 46.34 81.4213 47.78V71H74.9773V47.78C74.9773 44.852 74.3893 42.668 73.2133 41.228C72.0373 39.788 70.3213 39.068 68.0653 39.068C66.4813 39.068 65.0173 39.5 63.6733 40.364C62.3293 41.204 61.0933 42.356 59.9653 43.82V71H53.5213ZM119.168 39.392C120.728 37.736 122.456 36.416 124.352 35.432C126.248 34.448 128.432 33.956 130.904 33.956C132.896 33.956 134.648 34.292 136.16 34.964C137.696 35.612 138.968 36.548 139.976 37.772C141.008 38.972 141.788 40.424 142.316 42.128C142.844 43.832 143.108 45.716 143.108 47.78V71H136.664V47.78C136.664 45.02 136.028 42.884 134.756 41.372C133.508 39.836 131.6 39.068 129.032 39.068C127.136 39.068 125.36 39.524 123.704 40.436C122.072 41.348 120.56 42.584 119.168 44.144V71H112.724V17.972H119.168V39.392ZM159.317 62.216C160.493 63.8 161.777 64.916 163.169 65.564C164.561 66.212 166.121 66.536 167.849 66.536C171.257 66.536 173.873 65.324 175.697 62.9C177.521 60.476 178.433 57.02 178.433 52.532C178.433 50.156 178.217 48.116 177.785 46.412C177.377 44.708 176.777 43.316 175.985 42.236C175.193 41.132 174.221 40.328 173.069 39.824C171.917 39.32 170.609 39.068 169.145 39.068C167.057 39.068 165.221 39.548 163.637 40.508C162.077 41.468 160.637 42.824 159.317 44.576V62.216ZM158.993 40.184C160.529 38.288 162.305 36.764 164.321 35.612C166.337 34.46 168.641 33.884 171.233 33.884C173.345 33.884 175.253 34.292 176.957 35.108C178.661 35.9 180.113 37.088 181.313 38.672C182.513 40.232 183.437 42.176 184.085 44.504C184.733 46.832 185.057 49.508 185.057 52.532C185.057 55.22 184.697 57.728 183.977 60.056C183.257 62.36 182.213 64.364 180.845 66.068C179.501 67.748 177.845 69.08 175.877 70.064C173.933 71.024 171.737 71.504 169.289 71.504C167.057 71.504 165.137 71.132 163.529 70.388C161.945 69.62 160.541 68.564 159.317 67.22V83.348H152.873V34.532H156.725C157.637 34.532 158.201 34.976 158.417 35.864L158.993 40.184Z" fill="black" fill-opacity="0.5"/>
<path d="M199.28 39.824C200.072 38.936 200.912 38.132 201.8 37.412C202.688 36.692 203.624 36.08 204.608 35.576C205.616 35.048 206.672 34.652 207.776 34.388C208.904 34.1 210.116 33.956 211.412 33.956C213.404 33.956 215.156 34.292 216.668 34.964C218.204 35.612 219.476 36.548 220.484 37.772C221.516 38.972 222.296 40.424 222.824 42.128C223.352 43.832 223.616 45.716 223.616 47.78V71H217.172V47.78C217.172 45.02 216.536 42.884 215.264 41.372C214.016 39.836 212.108 39.068 209.54 39.068C207.644 39.068 205.868 39.524 204.212 40.436C202.58 41.348 201.068 42.584 199.676 44.144V71H193.232V34.532H197.084C197.996 34.532 198.56 34.976 198.776 35.864L199.28 39.824ZM253.145 54.584C250.193 54.68 247.673 54.92 245.585 55.304C243.521 55.664 241.829 56.144 240.509 56.744C239.213 57.344 238.265 58.052 237.665 58.868C237.089 59.684 236.801 60.596 236.801 61.604C236.801 62.564 236.957 63.392 237.269 64.088C237.581 64.784 238.001 65.36 238.529 65.816C239.081 66.248 239.717 66.572 240.437 66.788C241.181 66.98 241.973 67.076 242.813 67.076C243.941 67.076 244.973 66.968 245.909 66.752C246.845 66.512 247.721 66.176 248.537 65.744C249.377 65.312 250.169 64.796 250.913 64.196C251.681 63.596 252.425 62.912 253.145 62.144V54.584ZM232.445 39.68C234.461 37.736 236.633 36.284 238.961 35.324C241.289 34.364 243.869 33.884 246.701 33.884C248.741 33.884 250.553 34.22 252.137 34.892C253.721 35.564 255.053 36.5 256.133 37.7C257.213 38.9 258.029 40.352 258.581 42.056C259.133 43.76 259.409 45.632 259.409 47.672V71H256.565C255.941 71 255.461 70.904 255.125 70.712C254.789 70.496 254.525 70.088 254.333 69.488L253.613 66.032C252.653 66.92 251.717 67.712 250.805 68.408C249.893 69.08 248.933 69.656 247.925 70.136C246.917 70.592 245.837 70.94 244.685 71.18C243.557 71.444 242.297 71.576 240.905 71.576C239.489 71.576 238.157 71.384 236.909 71C235.661 70.592 234.569 69.992 233.633 69.2C232.721 68.408 231.989 67.412 231.437 66.212C230.909 64.988 230.645 63.548 230.645 61.892C230.645 60.452 231.041 59.072 231.833 57.752C232.625 56.408 233.909 55.22 235.685 54.188C237.461 53.156 239.777 52.316 242.633 51.668C245.489 50.996 248.993 50.612 253.145 50.516V47.672C253.145 44.84 252.533 42.704 251.309 41.264C250.085 39.8 248.297 39.068 245.945 39.068C244.361 39.068 243.029 39.272 241.949 39.68C240.893 40.064 239.969 40.508 239.177 41.012C238.409 41.492 237.737 41.936 237.161 42.344C236.609 42.728 236.057 42.92 235.505 42.92C235.073 42.92 234.701 42.812 234.389 42.596C234.077 42.356 233.813 42.068 233.597 41.732L232.445 39.68ZM290.41 40.544C290.122 41.072 289.678 41.336 289.078 41.336C288.718 41.336 288.31 41.204 287.854 40.94C287.398 40.676 286.834 40.388 286.162 40.076C285.514 39.74 284.734 39.44 283.822 39.176C282.91 38.888 281.83 38.744 280.582 38.744C279.502 38.744 278.53 38.888 277.666 39.176C276.802 39.44 276.058 39.812 275.434 40.292C274.834 40.772 274.366 41.336 274.03 41.984C273.718 42.608 273.562 43.292 273.562 44.036C273.562 44.972 273.826 45.752 274.354 46.376C274.906 47 275.626 47.54 276.514 47.996C277.402 48.452 278.41 48.86 279.538 49.22C280.666 49.556 281.818 49.928 282.994 50.336C284.194 50.72 285.358 51.152 286.486 51.632C287.614 52.112 288.622 52.712 289.51 53.432C290.398 54.152 291.106 55.04 291.634 56.096C292.186 57.128 292.462 58.376 292.462 59.84C292.462 61.52 292.162 63.08 291.562 64.52C290.962 65.936 290.074 67.172 288.898 68.228C287.722 69.26 286.282 70.076 284.578 70.676C282.874 71.276 280.906 71.576 278.674 71.576C276.13 71.576 273.826 71.168 271.762 70.352C269.698 69.512 267.946 68.444 266.506 67.148L268.018 64.7C268.21 64.388 268.438 64.148 268.702 63.98C268.966 63.812 269.302 63.728 269.71 63.728C270.142 63.728 270.598 63.896 271.078 64.232C271.558 64.568 272.134 64.94 272.806 65.348C273.502 65.756 274.342 66.128 275.326 66.464C276.31 66.8 277.534 66.968 278.998 66.968C280.246 66.968 281.338 66.812 282.274 66.5C283.21 66.164 283.99 65.72 284.614 65.168C285.238 64.616 285.694 63.98 285.982 63.26C286.294 62.54 286.45 61.772 286.45 60.956C286.45 59.948 286.174 59.12 285.622 58.472C285.094 57.8 284.386 57.236 283.498 56.78C282.61 56.3 281.59 55.892 280.438 55.556C279.31 55.196 278.146 54.824 276.946 54.44C275.77 54.056 274.606 53.624 273.454 53.144C272.326 52.64 271.318 52.016 270.43 51.272C269.542 50.528 268.822 49.616 268.27 48.536C267.742 47.432 267.478 46.1 267.478 44.54C267.478 43.148 267.766 41.816 268.342 40.544C268.918 39.248 269.758 38.12 270.862 37.16C271.966 36.176 273.322 35.396 274.93 34.82C276.538 34.244 278.374 33.956 280.438 33.956C282.838 33.956 284.986 34.34 286.882 35.108C288.802 35.852 290.458 36.884 291.85 38.204L290.41 40.544Z" fill="#FE646F"/>
<path d="M244 88.5C271.5 69.5 292 81.5 292 81.5C292 81.5 271 74 244 88.5Z" fill="#FE646F" stroke="#FE646F" stroke-linecap="round" stroke-linejoin="round"/>
</svg>
