<svg width="429" height="95" viewBox="0 0 429 95" fill="none" xmlns="http://www.w3.org/2000/svg">
<circle cx="53.2125" cy="42.3654" r="25.8654" stroke="#FE646F" stroke-width="3"/>
<path fill-rule="evenodd" clip-rule="evenodd" d="M36.682 66.6281L24.8239 78.4214C22.5687 80.6643 18.9226 80.6553 16.6785 78.4013C14.4327 76.1457 14.4417 72.4963 16.6985 70.2517L28.6203 58.3942C30.7393 61.6409 33.4835 64.4425 36.682 66.6281ZM38.1278 65.1902C34.8947 63.0467 32.1433 60.2347 30.0709 56.9513L31.63 55.4007C33.9427 53.1005 37.7018 53.177 39.919 55.5694C42.0282 57.8453 41.9561 61.3828 39.7559 63.5709L38.1278 65.1902Z" fill="#FE646F"/>
<path fill-rule="evenodd" clip-rule="evenodd" d="M72.0951 62.1724C67.1843 66.8555 60.5342 69.7308 53.2125 69.7308C38.0991 69.7308 25.8472 57.4789 25.8472 42.3655C25.8472 31.9637 31.6506 22.9175 40.1962 18.288L47.4514 19.5267L42.9248 54.0935C70.9075 39.0734 73.788 52.4474 73.788 52.4474L72.142 61.9121L72.0951 62.1724Z" fill="#FE646F"/>
<path d="M49.7147 20.1439L71.222 45.3627C62.4609 43.2726 56.9316 44.2477 46.0184 49.6418L49.7147 20.1439Z" fill="#FE646F" fill-opacity="0.24"/>
<path d="M138.37 34.65H144.67C144.577 31.8967 144.04 29.54 143.06 27.58C142.127 25.5733 140.82 23.9167 139.14 22.61C137.507 21.3033 135.593 20.3467 133.4 19.74C131.207 19.1333 128.827 18.83 126.26 18.83C123.973 18.83 121.733 19.1333 119.54 19.74C117.393 20.3 115.457 21.1867 113.73 22.4C112.05 23.5667 110.697 25.0833 109.67 26.95C108.643 28.77 108.13 30.94 108.13 33.46C108.13 35.7467 108.573 37.66 109.46 39.2C110.393 40.6933 111.607 41.93 113.1 42.91C114.64 43.8433 116.367 44.6133 118.28 45.22C120.193 45.78 122.13 46.2933 124.09 46.76C126.097 47.18 128.057 47.6 129.97 48.02C131.883 48.44 133.587 49 135.08 49.7C136.62 50.3533 137.833 51.2167 138.72 52.29C139.653 53.3633 140.12 54.7633 140.12 56.49C140.12 58.31 139.747 59.8033 139 60.97C138.253 62.1367 137.273 63.07 136.06 63.77C134.847 64.4233 133.47 64.89 131.93 65.17C130.437 65.45 128.943 65.59 127.45 65.59C125.583 65.59 123.763 65.3567 121.99 64.89C120.217 64.4233 118.653 63.7 117.3 62.72C115.993 61.74 114.92 60.5033 114.08 59.01C113.287 57.47 112.89 55.65 112.89 53.55H106.59C106.59 56.5833 107.127 59.22 108.2 61.46C109.32 63.6533 110.813 65.4733 112.68 66.92C114.593 68.32 116.787 69.37 119.26 70.07C121.78 70.77 124.44 71.12 127.24 71.12C129.527 71.12 131.813 70.84 134.1 70.28C136.433 69.7667 138.533 68.9267 140.4 67.76C142.267 66.5467 143.783 65.0067 144.95 63.14C146.163 61.2267 146.77 58.94 146.77 56.28C146.77 53.8067 146.303 51.7533 145.37 50.12C144.483 48.4867 143.27 47.1333 141.73 46.06C140.237 44.9867 138.533 44.1467 136.62 43.54C134.707 42.8867 132.747 42.3267 130.74 41.86C128.78 41.3933 126.843 40.9733 124.93 40.6C123.017 40.18 121.29 39.6667 119.75 39.06C118.257 38.4533 117.043 37.6833 116.11 36.75C115.223 35.77 114.78 34.51 114.78 32.97C114.78 31.3367 115.083 29.9833 115.69 28.91C116.343 27.79 117.183 26.9033 118.21 26.25C119.283 25.5967 120.497 25.13 121.85 24.85C123.203 24.57 124.58 24.43 125.98 24.43C129.433 24.43 132.257 25.2467 134.45 26.88C136.69 28.4667 137.997 31.0567 138.37 34.65ZM160.171 27.3V20.02H154.221V27.3H160.171ZM154.221 33.81V70H160.171V33.81H154.221ZM169.388 33.81V70H175.338V47.46C175.338 46.76 175.502 45.8967 175.828 44.87C176.202 43.7967 176.762 42.77 177.508 41.79C178.302 40.81 179.305 39.97 180.518 39.27C181.778 38.57 183.272 38.22 184.998 38.22C186.352 38.22 187.448 38.43 188.288 38.85C189.175 39.2233 189.875 39.7833 190.388 40.53C190.902 41.23 191.252 42.07 191.438 43.05C191.672 44.03 191.788 45.1033 191.788 46.27V70H197.738V47.46C197.738 44.66 198.578 42.42 200.258 40.74C201.938 39.06 204.248 38.22 207.188 38.22C208.635 38.22 209.802 38.43 210.688 38.85C211.622 39.27 212.345 39.8533 212.858 40.6C213.372 41.3 213.722 42.14 213.908 43.12C214.095 44.1 214.188 45.15 214.188 46.27V70H220.138V43.47C220.138 41.6033 219.835 40.0167 219.228 38.71C218.668 37.3567 217.852 36.26 216.778 35.42C215.752 34.58 214.492 33.9733 212.998 33.6C211.552 33.18 209.918 32.97 208.098 32.97C205.718 32.97 203.525 33.5067 201.518 34.58C199.558 35.6533 197.972 37.17 196.758 39.13C196.012 36.89 194.728 35.3033 192.908 34.37C191.088 33.4367 189.058 32.97 186.818 32.97C181.732 32.97 177.835 35.0233 175.128 39.13H174.988V33.81H169.388ZM229.066 20.02V70H235.016V49.56C235.016 47.9267 235.226 46.4333 235.646 45.08C236.113 43.68 236.789 42.4667 237.676 41.44C238.563 40.4133 239.659 39.62 240.966 39.06C242.319 38.5 243.906 38.22 245.726 38.22C248.013 38.22 249.809 38.8733 251.116 40.18C252.423 41.4867 253.076 43.26 253.076 45.5V70H259.026V46.2C259.026 44.24 258.816 42.4667 258.396 40.88C258.023 39.2467 257.346 37.8467 256.366 36.68C255.386 35.5133 254.103 34.6033 252.516 33.95C250.929 33.2967 248.946 32.97 246.566 32.97C245.493 32.97 244.373 33.0867 243.206 33.32C242.086 33.5533 240.989 33.9267 239.916 34.44C238.889 34.9067 237.956 35.5367 237.116 36.33C236.276 37.0767 235.623 38.01 235.156 39.13H235.016V20.02H229.066ZM268.172 33.81V83.79H274.122V65.17H274.262C274.916 66.2433 275.709 67.1533 276.642 67.9C277.622 68.6 278.649 69.16 279.722 69.58C280.796 70 281.869 70.3033 282.942 70.49C284.062 70.6767 285.066 70.77 285.952 70.77C288.706 70.77 291.109 70.28 293.162 69.3C295.262 68.32 296.989 66.99 298.342 65.31C299.742 63.5833 300.769 61.5767 301.422 59.29C302.122 57.0033 302.472 54.5767 302.472 52.01C302.472 49.4433 302.122 47.0167 301.422 44.73C300.722 42.4433 299.672 40.4367 298.272 38.71C296.919 36.9367 295.192 35.5367 293.092 34.51C291.039 33.4833 288.612 32.97 285.812 32.97C283.292 32.97 280.982 33.4367 278.882 34.37C276.782 35.2567 275.242 36.7033 274.262 38.71H274.122V33.81H268.172ZM296.172 51.59C296.172 53.3633 295.986 55.09 295.612 56.77C295.239 58.45 294.632 59.9433 293.792 61.25C292.952 62.5567 291.832 63.6067 290.432 64.4C289.079 65.1933 287.376 65.59 285.322 65.59C283.269 65.59 281.519 65.2167 280.072 64.47C278.626 63.6767 277.436 62.65 276.502 61.39C275.616 60.13 274.962 58.6833 274.542 57.05C274.122 55.37 273.912 53.6433 273.912 51.87C273.912 50.19 274.099 48.5333 274.472 46.9C274.892 45.2667 275.546 43.82 276.432 42.56C277.319 41.2533 278.462 40.2033 279.862 39.41C281.262 38.6167 282.966 38.22 284.972 38.22C286.886 38.22 288.542 38.5933 289.942 39.34C291.389 40.0867 292.556 41.09 293.442 42.35C294.376 43.61 295.052 45.0567 295.472 46.69C295.939 48.2767 296.172 49.91 296.172 51.59ZM310.367 20.02V70H316.667V29.89H316.807L342.917 70H350.197V20.02H343.897V60.55H343.757L317.437 20.02H310.367ZM392.034 69.86C391.007 70.4667 389.584 70.77 387.764 70.77C386.224 70.77 384.987 70.35 384.054 69.51C383.167 68.6233 382.724 67.2 382.724 65.24C381.091 67.2 379.177 68.6233 376.984 69.51C374.837 70.35 372.504 70.77 369.984 70.77C368.351 70.77 366.787 70.5833 365.294 70.21C363.847 69.8367 362.587 69.2533 361.514 68.46C360.441 67.6667 359.577 66.64 358.924 65.38C358.317 64.0733 358.014 62.51 358.014 60.69C358.014 58.6367 358.364 56.9567 359.064 55.65C359.764 54.3433 360.674 53.2933 361.794 52.5C362.961 51.66 364.267 51.03 365.714 50.61C367.207 50.19 368.724 49.84 370.264 49.56C371.897 49.2333 373.437 49 374.884 48.86C376.377 48.6733 377.684 48.44 378.804 48.16C379.924 47.8333 380.811 47.39 381.464 46.83C382.117 46.2233 382.444 45.36 382.444 44.24C382.444 42.9333 382.187 41.8833 381.674 41.09C381.207 40.2967 380.577 39.69 379.784 39.27C379.037 38.85 378.174 38.57 377.194 38.43C376.261 38.29 375.327 38.22 374.394 38.22C371.874 38.22 369.774 38.71 368.094 39.69C366.414 40.6233 365.504 42.42 365.364 45.08H359.414C359.507 42.84 359.974 40.95 360.814 39.41C361.654 37.87 362.774 36.6333 364.174 35.7C365.574 34.72 367.161 34.02 368.934 33.6C370.754 33.18 372.691 32.97 374.744 32.97C376.377 32.97 377.987 33.0867 379.574 33.32C381.207 33.5533 382.677 34.0433 383.984 34.79C385.291 35.49 386.341 36.4933 387.134 37.8C387.927 39.1067 388.324 40.81 388.324 42.91V61.53C388.324 62.93 388.394 63.9567 388.534 64.61C388.721 65.2633 389.281 65.59 390.214 65.59C390.727 65.59 391.334 65.4733 392.034 65.24V69.86ZM382.374 51.31C381.627 51.87 380.647 52.29 379.434 52.57C378.221 52.8033 376.937 53.0133 375.584 53.2C374.277 53.34 372.947 53.5267 371.594 53.76C370.241 53.9467 369.027 54.2733 367.954 54.74C366.881 55.2067 365.994 55.8833 365.294 56.77C364.641 57.61 364.314 58.7767 364.314 60.27C364.314 61.25 364.501 62.09 364.874 62.79C365.294 63.4433 365.807 63.98 366.414 64.4C367.067 64.82 367.814 65.1233 368.654 65.31C369.494 65.4967 370.381 65.59 371.314 65.59C373.274 65.59 374.954 65.3333 376.354 64.82C377.754 64.26 378.897 63.5833 379.784 62.79C380.671 61.95 381.324 61.0633 381.744 60.13C382.164 59.15 382.374 58.24 382.374 57.4V51.31ZM401.212 58.59H395.262C395.355 60.83 395.822 62.7433 396.662 64.33C397.502 65.87 398.622 67.13 400.022 68.11C401.422 69.0433 403.032 69.72 404.852 70.14C406.672 70.56 408.585 70.77 410.592 70.77C412.412 70.77 414.232 70.5833 416.052 70.21C417.918 69.8833 419.575 69.2767 421.022 68.39C422.515 67.5033 423.705 66.3367 424.592 64.89C425.525 63.4433 425.992 61.6233 425.992 59.43C425.992 57.7033 425.642 56.2567 424.942 55.09C424.288 53.9233 423.402 52.9667 422.282 52.22C421.208 51.4267 419.948 50.7967 418.502 50.33C417.102 49.8633 415.655 49.4667 414.162 49.14C412.762 48.8133 411.362 48.51 409.962 48.23C408.562 47.9033 407.302 47.53 406.182 47.11C405.062 46.6433 404.128 46.0833 403.382 45.43C402.682 44.73 402.332 43.8667 402.332 42.84C402.332 41.9067 402.565 41.16 403.032 40.6C403.498 39.9933 404.105 39.5267 404.852 39.2C405.598 38.8267 406.415 38.57 407.302 38.43C408.235 38.29 409.145 38.22 410.032 38.22C411.012 38.22 411.968 38.3367 412.902 38.57C413.882 38.7567 414.768 39.0833 415.562 39.55C416.355 40.0167 417.008 40.6467 417.522 41.44C418.035 42.1867 418.338 43.1433 418.432 44.31H424.382C424.242 42.1167 423.775 40.2967 422.982 38.85C422.188 37.3567 421.115 36.19 419.762 35.35C418.455 34.4633 416.938 33.8567 415.212 33.53C413.485 33.1567 411.595 32.97 409.542 32.97C407.955 32.97 406.345 33.18 404.712 33.6C403.125 33.9733 401.678 34.58 400.372 35.42C399.112 36.2133 398.062 37.2633 397.222 38.57C396.428 39.8767 396.032 41.44 396.032 43.26C396.032 45.5933 396.615 47.4133 397.782 48.72C398.948 50.0267 400.395 51.0533 402.122 51.8C403.895 52.5 405.808 53.06 407.862 53.48C409.915 53.8533 411.805 54.2967 413.532 54.81C415.305 55.2767 416.775 55.9067 417.942 56.7C419.108 57.4933 419.692 58.66 419.692 60.2C419.692 61.32 419.412 62.2533 418.852 63C418.292 63.7 417.568 64.2367 416.682 64.61C415.842 64.9833 414.908 65.24 413.882 65.38C412.855 65.52 411.875 65.59 410.942 65.59C409.728 65.59 408.538 65.4733 407.372 65.24C406.252 65.0067 405.225 64.6333 404.292 64.12C403.405 63.56 402.682 62.8367 402.122 61.95C401.562 61.0167 401.258 59.8967 401.212 58.59Z" fill="#41494F"/>
</svg>
