<svg width="64" height="64" viewBox="0 0 64 64" fill="none" xmlns="http://www.w3.org/2000/svg">
<path d="M52.2 7.89998L54.7 10.5L60 6.99998C62.2 6.69998 63.2 1.99998 57.2 3.49998C55.7 3.89998 53.4 4.99998 52.2 7.89998Z" fill="#89664C"/>
<path d="M61.1 6.99995C62.9 6.29995 61.6 4.19995 61.6 4.19995C61.6 4.19995 62 5.69995 59.2 6.09995C55.1 6.69995 54 9.69995 54 9.69995L54.7 10.4C54.7 10.4 57.1 8.59995 61.1 6.99995" fill="#594640"/>
<path d="M53.5 6.00001C62.3 15.3 54.7 29.3 45.9 45.5C45.2 46.9 44.4 48.2 43.7 49.6C37.5 61.1 28.4 62.3 23.5 62C18 61.6 12.5 59 8.79999 55.1C4.99999 51.1 2.49999 45.3 2.09999 39.4C1.69999 34.2 2.59999 24.3 13.2 17.4C14.4 16.6 15.7 15.8 16.9 15C31.8 5.20001 44.7 -3.29999 53.5 6.00001Z" fill="#699635"/>
<path d="M15 19.9C29.5 10.5 44.3 -0.500002 52 7.7C59.7 15.8 44.5 26.3 36 42.2C27.5 58 17.1 60.7 10.2 53.5C3.39999 46.2 0.399994 29.4 15 19.9Z" fill="#C7E755"/>
<path d="M11.8 51.8C13.4 53.4 15.1 54.3 17.1 54.4C22.6 54.8 28.7 49.6 33.8 40.2C36.7 34.7 40.4 29.9 43.7 25.6C48.9 18.9 53.7 12.5 50.6 9.20004C45.3 3.60004 31.6 12.6 20.6 19.9C19.4 20.7 18.1 21.5 16.9 22.3C7.80001 28.2 7.00001 36.3 7.30001 40.6C7.60001 45 9.30001 49.2 11.8 51.8" fill="#C7E755"/>
<path opacity="0.33" d="M11.8 51.8C13.4 53.4 15.1 54.3 17.1 54.4C22.6 54.8 28.7 49.6 33.8 40.2C36.7 34.7 40.4 29.9 43.7 25.6C48.9 18.9 53.7 12.5 50.6 9.20004C45.3 3.60004 31.6 12.6 20.6 19.9C19.4 20.7 18.1 21.5 16.9 22.3C7.80001 28.2 7.00001 36.3 7.30001 40.6C7.60001 45 9.30001 49.2 11.8 51.8" fill="#FFCE31"/>
<path d="M17.2 27C23.2 20.4 32 21 33.8 25C35.6 29 33 35 29 39.4C24.9 43.8 19.4 46.7 15.7 44.9C11.9 43.1 11.2 33.6 17.2 27" fill="#89664C"/>
<path d="M16.5 33.6C19.1 29.8 21.8 28.8 21.3 29.7C20.9 30.6 19.5 32.8 18.7 34.8C17.8 36.8 17.3 38.5 16.3 39.1C15.3 39.9 14 37.7 16.5 33.6Z" fill="#D3976E"/>
<path d="M26.4 36.7C22.9 40.4 18.7 43.3 14.7 44.2C15 44.5 15.3 44.8 15.7 44.9C19.5 46.8 24.9 43.9 29 39.4C33 35 35.6 29 33.8 25C33.6 24.6 33.4 24.3 33.1 24C32.4 28.2 29.8 32.9 26.4 36.7" fill="#594640"/>
</svg>
